<?xml version="1.0" encoding="UTF-8" standalone="no"?>
<svg
   xmlns:dc="http://purl.org/dc/elements/1.1/"
   xmlns:cc="http://creativecommons.org/ns#"
   xmlns:rdf="http://www.w3.org/1999/02/22-rdf-syntax-ns#"
   xmlns:svg="http://www.w3.org/2000/svg"
   xmlns="http://www.w3.org/2000/svg"
   xmlns:sodipodi="http://sodipodi.sourceforge.net/DTD/sodipodi-0.dtd"
   xmlns:inkscape="http://www.inkscape.org/namespaces/inkscape"
   width="1032"
   height="728"
   viewBox="0 0 1032 728"
   version="1.1"
   id="svg56"
   sodipodi:docname="co.svg"
   inkscape:version="0.92.4 (5da689c313, 2019-01-14)">
  <metadata
     id="metadata62">
    <rdf:RDF>
      <cc:Work
         rdf:about="">
        <dc:format>image/svg+xml</dc:format>
        <dc:type
           rdf:resource="http://purl.org/dc/dcmitype/StillImage" />
        <dc:title></dc:title>
      </cc:Work>
    </rdf:RDF>
  </metadata>
  <defs
     id="defs60" />
  <sodipodi:namedview
     pagecolor="#ffffff"
     bordercolor="#666666"
     borderopacity="1"
     objecttolerance="10"
     gridtolerance="10"
     guidetolerance="10"
     inkscape:pageopacity="0"
     inkscape:pageshadow="2"
     inkscape:window-width="1920"
     inkscape:window-height="1017"
     id="namedview58"
     showgrid="false"
     inkscape:zoom="0.55620155"
     inkscape:cx="536.52865"
     inkscape:cy="370.17214"
     inkscape:window-x="-8"
     inkscape:window-y="-8"
     inkscape:window-maximized="1"
     inkscape:current-layer="svg56"
     fit-margin-top="0"
     fit-margin-left="0"
     fit-margin-right="0"
     fit-margin-bottom="0" />
  <rect
     style="fill:#313f56;stroke-width:2"
     y="0"
     x="0"
     height="728"
     width="1032"
     data-name="Rectangle 93"
     id="Rectangle_93" />
  <path
     style="opacity:0.38999999;fill:none;stroke:#8999a8;stroke-width:2"
     inkscape:connector-curvature="0"
     d="M 948.162,168 H 166.752"
     data-name="Path 390"
     id="Path_390" />
  <path
     style="fill:none;stroke:#a7b6c4;stroke-width:2"
     inkscape:connector-curvature="0"
     d="M 102.01,185.386 V 626.924 H 946.624"
     data-name="Path 365"
     id="Path_365" />
  <path
     style="fill:none;stroke:#8999a8;stroke-width:2;stroke-dasharray:8"
     inkscape:connector-curvature="0"
     d="m 198.932,623.848 c 0,0 -6.154,-233.846 95.384,-304.616 101.538,-70.77 250.77,-93.846 630.77,-86.154"
     data-name="Path 366"
     id="Path_366" />
  <path
     style="fill:none;stroke:#ff4701;stroke-width:2;stroke-dasharray:6"
     inkscape:connector-curvature="0"
     d="m 948.162,526.924 c 0,0 -521.538,36.924 -707.692,-133.846"
     data-name="Path 367"
     id="Path_367" />
  <path
     style="fill:none;stroke:#ff4701;stroke-width:2;stroke-dasharray:6"
     inkscape:connector-curvature="0"
     d="m 948.162,393.078 c 0,0 -477.978,6.4 -641.292,-82.366"
     data-name="Path 368"
     id="Path_368" />
  <path
     style="fill:none;stroke:#ff4701;stroke-width:2;stroke-dasharray:6"
     inkscape:connector-curvature="0"
     d="m 948.162,304.8 c 0,0 -446.024,11.834 -560.816,-31.952"
     data-name="Path 369"
     id="Path_369" />
  <path
     style="fill:none;stroke:#ff4701;stroke-width:2;stroke-dasharray:6"
     inkscape:connector-curvature="0"
     d="m 948.162,246.8 c 0,0 -243.658,3.55 -354.9,-9.468"
     data-name="Path 370"
     id="Path_370" />
  <path
     style="fill:none;stroke:#ff4701;stroke-width:6;stroke-dasharray:6"
     inkscape:connector-curvature="0"
     d="m 167.226,181.718 c 0,0 -11.834,134.912 73.374,211.834"
     data-name="Path 371"
     id="Path_371" />
  <path
     style="fill:none;stroke:#ff4701;stroke-width:6;stroke-dasharray:6"
     inkscape:connector-curvature="0"
     d="m 305.688,181.718 c 0,0 15.386,67.456 82.842,94.674"
     data-name="Path 373"
     id="Path_373" />
  <path
     style="fill:none;stroke:#ff4701;stroke-width:6;stroke-dasharray:6"
     inkscape:connector-curvature="0"
     d="m 380.244,181.718 c 0,0 36.688,59.172 188.166,60.354"
     data-name="Path 374"
     id="Path_374" />
  <path
     style="fill:none;stroke:#ff4701;stroke-width:6;stroke-dasharray:6"
     inkscape:connector-curvature="0"
     d="m 561.972,181.718 c 0,0 23,43.786 251.4,46.154"
     data-name="Path 375"
     id="Path_375" />
  <path
     style="fill:none;stroke:#ff4701;stroke-width:6;stroke-dasharray:6"
     inkscape:connector-curvature="0"
     d="m 813.38,181.718 c 0,0 23.67,37.87 131.362,39.054"
     data-name="Path 376"
     id="Path_376" />
  <path
     style="fill:none;stroke:#ffd500;stroke-width:2"
     inkscape:connector-curvature="0"
     d="M 240.47,188.532 V 391.6"
     data-name="Path 377"
     id="Path_377" />
  <path
     style="fill:none;stroke:#ffd500;stroke-width:2"
     inkscape:connector-curvature="0"
     d="m 304.47,188.532 v 122.18"
     data-name="Path 378"
     id="Path_378" />
  <path
     style="fill:none;stroke:#ffd500;stroke-width:2"
     inkscape:connector-curvature="0"
     d="m 382.47,188.532 v 84.31"
     data-name="Path 379"
     id="Path_379" />
  <path
     style="fill:none;stroke:#ffd500;stroke-width:2"
     inkscape:connector-curvature="0"
     d="m 564.47,188.532 v 48.8"
     data-name="Path 380"
     id="Path_380" />
  <path
     style="fill:none;stroke:#48b0ff;stroke-width:2"
     inkscape:connector-curvature="0"
     d="m 286.16,493.144 c 0,0 -44.116,-7 -44.116,-77.728"
     data-name="Path 381"
     id="Path_381" />
  <path
     style="fill:none;stroke:#48b0ff;stroke-width:2"
     inkscape:connector-curvature="0"
     d="m 352.686,402.81 c 0,0 -49.718,-18.2 -49.718,-77.028"
     data-name="Path 382"
     id="Path_382" />
  <path
     style="fill:none;stroke:#48b0ff;stroke-width:2"
     inkscape:connector-curvature="0"
     d="m 440.216,329.984 c 0,0 -68.624,8.4 -64.424,-44.116"
     data-name="Path 383"
     id="Path_383" />
  <path
     style="fill:none;stroke:#a7b6c4;stroke-width:2"
     inkscape:connector-curvature="0"
     d="M 388.53,181.718 H 558.562"
     data-name="Path 384"
     id="Path_384" />
  <path
     style="fill:#48b0ff;stroke-width:2"
     inkscape:connector-curvature="0"
     d="m 242,404 6,12 h -12 z"
     data-name="Polygon 20"
     id="Polygon_20" />
  <path
     style="fill:#48b0ff;stroke-width:2"
     inkscape:connector-curvature="0"
     d="m 304,318 6,10 h -12 z"
     data-name="Polygon 21"
     id="Polygon_21" />
  <path
     style="fill:#48b0ff;stroke-width:2"
     inkscape:connector-curvature="0"
     d="m 377,280 7,10 h -14 z"
     data-name="Polygon 22"
     id="Polygon_22" />
  <path
     style="fill:none;stroke:#ff4701;stroke-width:6;stroke-dasharray:6"
     inkscape:connector-curvature="0"
     d="m 305.688,310.712 c -63.906,-34.32 -65.216,-129 -65.216,-129"
     data-name="Path 372"
     id="Path_372" />
  <path
     style="fill:none;stroke:#a7b6c4;stroke-width:2"
     inkscape:connector-curvature="0"
     d="m 244.682,181.718 h 53.2"
     data-name="Path 385"
     id="Path_385" />
  <path
     style="fill:#a7b6c4;stroke-width:2"
     inkscape:connector-curvature="0"
     d="m 306,182 -8,6 v -12 z"
     data-name="Polygon 23"
     id="Polygon_23" />
  <path
     style="fill:#a7b6c4;stroke-width:2"
     inkscape:connector-curvature="0"
     d="m 238,182 8,-6 v 12 z"
     data-name="Polygon 24"
     id="Polygon_24" />
  <path
     style="fill:#a7b6c4;stroke-width:2"
     inkscape:connector-curvature="0"
     d="m 564,182 -8,6 v -12 z"
     data-name="Polygon 25"
     id="Polygon_25" />
  <path
     style="fill:#a7b6c4;stroke-width:2"
     inkscape:connector-curvature="0"
     d="m 386,182 8,-6 v 12 z"
     data-name="Polygon 26"
     id="Polygon_26" />
  <path
     style="fill:#ffd500;stroke-width:2"
     inkscape:connector-curvature="0"
     d="m 240,186 6,10 h -12 z"
     data-name="Polygon 27"
     id="Polygon_27" />
  <path
     style="fill:#ffd500;stroke-width:2"
     inkscape:connector-curvature="0"
     d="m 304,186 6,10 h -12 z"
     data-name="Polygon 28"
     id="Polygon_28" />
  <path
     style="fill:#ffd500;stroke-width:2"
     inkscape:connector-curvature="0"
     d="m 382,186 6,10 h -12 z"
     data-name="Polygon 29"
     id="Polygon_29" />
  <path
     style="fill:#ffd500;stroke-width:2"
     inkscape:connector-curvature="0"
     d="m 564,186 6,10 h -12 z"
     data-name="Polygon 30"
     id="Polygon_30" />
  <path
     style="fill:none;stroke:#48b0ff;stroke-width:2"
     inkscape:connector-curvature="0"
     d="m 166.668,106.012 c 0,0 32.3,14.544 9.678,64.64"
     data-name="Path 386"
     id="Path_386" />
  <circle
     style="fill:#ffd500;stroke:#48b0ff;stroke-width:4;stroke-dasharray:4"
     r="10"
     cy="178"
     cx="172"
     data-name="Ellipse 622"
     id="Ellipse_622" />
  <path
     style="fill:#ffffff;stroke-width:2"
     inkscape:connector-curvature="0"
     d="m 82.58,611.48 q -1.9,0 -1.9,0.54 0,0.34 0.71,0.9 a 11.498,11.498 0 0 0 1.78,1.12 12.82,12.82 0 0 0 2.51,0.96 10.178,10.178 0 0 0 2.72,0.4 q 1.92,0 1.92,-0.64 0,-0.54 -1.33,-1.32 a 15.638,15.638 0 0 0 -3.2,-1.37 10.954,10.954 0 0 0 -3.21,-0.59 z m 6.38,-1.12 a 8.682,8.682 0 0 1 2.69,1.94 3.688,3.688 0 0 1 1.09,2.54 3.036,3.036 0 0 1 -1.43,2.43 5.07,5.07 0 0 1 -3.1,1.07 12.354,12.354 0 0 1 -3.58,-0.58 13.738,13.738 0 0 1 -3.34,-1.48 9.2,9.2 0 0 1 -2.33,-2.03 3.554,3.554 0 0 1 -0.9,-2.2 3.064,3.064 0 0 1 1.12,-2.5 4.92,4.92 0 0 1 3.2,-0.92 12.672,12.672 0 0 1 3.2,0.47 18.428,18.428 0 0 1 3.38,1.26 z m -4.14,-17.14 a 1.828,1.828 0 0 1 0.7,-1.4 4.2,4.2 0 0 1 1.48,-0.86 4.644,4.644 0 0 1 1.4,-0.25 4.818,4.818 0 0 1 3.14,1.24 3.676,3.676 0 0 1 1.48,2.88 1.932,1.932 0 0 1 -1.11,1.65 4.6,4.6 0 0 1 -2.42,0.67 5.338,5.338 0 0 1 -2.99,-1.2 3.384,3.384 0 0 1 -1.68,-2.73 z m 4.58,1.54 q 1.22,0 1.22,-0.5 0,-0.28 -0.62,-0.77 a 2.284,2.284 0 0 0 -1.46,-0.49 2.094,2.094 0 0 0 -0.98,0.17 q -0.3,0.17 -0.3,0.25 0,0.38 0.78,0.86 a 2.704,2.704 0 0 0 1.36,0.48 z m -12.28,-1.14 q 0,-0.42 0.84,-0.89 a 1.928,1.928 0 0 1 1.34,-0.34 3.728,3.728 0 0 1 1.1,0.53 q 0.6,0.4 1.28,0.92 2.94,2.28 5.12,3.88 4.82,3.64 5.62,4.38 0.8,0.74 0.76,0.92 a 1.4,1.4 0 0 1 -0.49,0.77 0.864,0.864 0 0 1 -0.75,0.25 4.61,4.61 0 0 1 -1.17,-0.58 q -0.8,-0.5 -2.13,-1.43 -1.33,-0.93 -2.38,-1.69 -3.78,-2.76 -5.2,-3.8 a 9,9 0 0 1 0.8,2.22 4.952,4.952 0 0 1 0.12,1.92 3.942,3.942 0 0 1 0.64,-0.06 4.82,4.82 0 0 1 3.16,1.25 3.704,3.704 0 0 1 1.48,2.89 1.932,1.932 0 0 1 -1.11,1.64 4.6,4.6 0 0 1 -2.42,0.67 5.314,5.314 0 0 1 -2.99,-1.21 3.4,3.4 0 0 1 -1.68,-2.72 1.466,1.466 0 0 1 0.16,-0.76 q 0.16,-0.26 0.28,-0.44 a 3.4,3.4 0 0 0 0.36,-0.8 3.91,3.91 0 0 0 -0.21,-2 12.742,12.742 0 0 0 -0.97,-2.3 20.106,20.106 0 0 1 -1.56,-3.22 z m 6.52,11.06 q 1.22,0 1.22,-0.5 0,-0.28 -0.63,-0.77 a 2.326,2.326 0 0 0 -1.47,-0.49 1.986,1.986 0 0 0 -0.99,0.18 q -0.29,0.18 -0.29,0.26 0,0.36 0.79,0.84 a 2.754,2.754 0 0 0 1.37,0.48 z"
     data-name="Path 1605"
     id="Path_1605" />
  <path
     style="fill:#ffffff;stroke-width:2"
     inkscape:connector-curvature="0"
     d="m 78.04,237.06 a 12.788,12.788 0 0 1 2.83,0.36 q 1.57,0.36 2.79,0.68 1.22,0.32 2.36,0.57 1.14,0.25 1.85,0.42 0.71,0.17 1.45,0.4 1.42,0.44 1.42,0.96 a 1.624,1.624 0 0 1 -0.6,1.05 1.632,1.632 0 0 1 -1.06,0.58 12.27,12.27 0 0 1 -2.2,-0.44 q -1.72,-0.44 -4.51,-0.89 a 36.452,36.452 0 0 0 -5.81,-0.45 0.518,0.518 0 0 1 -0.58,-0.59 3,3 0 0 1 0.84,-1.62 q 0.84,-1.03 1.22,-1.03 z m 2.54,-7.62 q -1.9,0 -1.9,0.54 0,0.34 0.71,0.9 a 11.498,11.498 0 0 0 1.78,1.12 12.82,12.82 0 0 0 2.51,0.96 10.178,10.178 0 0 0 2.72,0.4 q 1.92,0 1.92,-0.64 0,-0.54 -1.33,-1.32 a 15.638,15.638 0 0 0 -3.2,-1.37 10.954,10.954 0 0 0 -3.21,-0.59 z m 6.38,-1.12 a 8.682,8.682 0 0 1 2.69,1.94 3.688,3.688 0 0 1 1.09,2.54 3.036,3.036 0 0 1 -1.43,2.43 5.07,5.07 0 0 1 -3.1,1.07 12.354,12.354 0 0 1 -3.58,-0.58 13.738,13.738 0 0 1 -3.34,-1.48 9.2,9.2 0 0 1 -2.33,-2.03 3.554,3.554 0 0 1 -0.9,-2.19 3.064,3.064 0 0 1 1.12,-2.5 4.92,4.92 0 0 1 3.2,-0.92 12.672,12.672 0 0 1 3.2,0.47 18.428,18.428 0 0 1 3.38,1.25 z m -6.38,-9.14 q -1.9,0 -1.9,0.54 0,0.34 0.71,0.9 a 11.498,11.498 0 0 0 1.78,1.12 12.82,12.82 0 0 0 2.51,0.96 10.178,10.178 0 0 0 2.72,0.4 q 1.92,0 1.92,-0.64 0,-0.54 -1.33,-1.32 a 15.638,15.638 0 0 0 -3.2,-1.37 10.954,10.954 0 0 0 -3.21,-0.59 z m 6.38,-1.12 a 8.682,8.682 0 0 1 2.69,1.94 3.688,3.688 0 0 1 1.09,2.54 3.036,3.036 0 0 1 -1.43,2.43 5.07,5.07 0 0 1 -3.1,1.07 12.354,12.354 0 0 1 -3.58,-0.58 13.738,13.738 0 0 1 -3.34,-1.48 9.2,9.2 0 0 1 -2.33,-2.03 3.554,3.554 0 0 1 -0.9,-2.2 3.064,3.064 0 0 1 1.12,-2.5 4.92,4.92 0 0 1 3.2,-0.92 12.672,12.672 0 0 1 3.2,0.47 18.428,18.428 0 0 1 3.38,1.26 z m -4.14,-17.14 a 1.828,1.828 0 0 1 0.7,-1.4 4.2,4.2 0 0 1 1.48,-0.86 4.644,4.644 0 0 1 1.4,-0.25 4.818,4.818 0 0 1 3.14,1.24 3.676,3.676 0 0 1 1.48,2.88 1.932,1.932 0 0 1 -1.11,1.65 4.6,4.6 0 0 1 -2.42,0.67 5.338,5.338 0 0 1 -2.99,-1.2 3.384,3.384 0 0 1 -1.68,-2.73 z m 4.58,1.54 q 1.22,0 1.22,-0.5 0,-0.28 -0.62,-0.77 a 2.284,2.284 0 0 0 -1.46,-0.49 2.094,2.094 0 0 0 -0.98,0.17 q -0.3,0.17 -0.3,0.25 0,0.38 0.78,0.86 a 2.704,2.704 0 0 0 1.36,0.48 z m -12.28,-1.14 q 0,-0.42 0.84,-0.89 a 1.928,1.928 0 0 1 1.34,-0.34 3.728,3.728 0 0 1 1.1,0.53 q 0.6,0.4 1.28,0.92 2.94,2.28 5.12,3.88 4.82,3.64 5.62,4.38 0.8,0.74 0.76,0.92 a 1.4,1.4 0 0 1 -0.49,0.77 0.864,0.864 0 0 1 -0.75,0.25 4.61,4.61 0 0 1 -1.17,-0.58 q -0.8,-0.5 -2.13,-1.43 -1.33,-0.93 -2.38,-1.69 -3.78,-2.76 -5.2,-3.8 a 9,9 0 0 1 0.8,2.22 4.952,4.952 0 0 1 0.12,1.92 3.942,3.942 0 0 1 0.64,-0.06 4.82,4.82 0 0 1 3.16,1.25 3.704,3.704 0 0 1 1.48,2.89 1.932,1.932 0 0 1 -1.11,1.65 4.6,4.6 0 0 1 -2.42,0.67 5.314,5.314 0 0 1 -2.99,-1.22 3.4,3.4 0 0 1 -1.68,-2.72 1.466,1.466 0 0 1 0.16,-0.76 q 0.16,-0.26 0.28,-0.44 a 3.4,3.4 0 0 0 0.36,-0.8 3.91,3.91 0 0 0 -0.21,-2 12.742,12.742 0 0 0 -0.97,-2.3 20.106,20.106 0 0 1 -1.56,-3.22 z m 6.52,11.06 q 1.22,0 1.22,-0.5 0,-0.28 -0.63,-0.77 a 2.326,2.326 0 0 0 -1.47,-0.49 1.986,1.986 0 0 0 -0.99,0.18 q -0.29,0.18 -0.29,0.26 0,0.36 0.79,0.84 a 2.754,2.754 0 0 0 1.37,0.48 z"
     data-name="Path 1606"
     id="Path_1606" />
  <path
     style="fill:none;stroke:#a7b6c4;stroke-width:2"
     inkscape:connector-curvature="0"
     d="m 419.458,666 h 74.648"
     data-name="Path 387"
     id="Path_387" />
  <path
     style="fill:none;stroke:#a7b6c4;stroke-width:2"
     inkscape:connector-curvature="0"
     d="m 662.52,666 h 71.916"
     data-name="Path 388"
     id="Path_388" />
  <path
     style="fill:#a7b6c4;stroke-width:2"
     inkscape:connector-curvature="0"
     d="m 746,666 -12,6 v -12 z"
     data-name="Polygon 31"
     id="Polygon_31" />
  <path
     style="fill:none;stroke:#ffd500;stroke-width:2"
     inkscape:connector-curvature="0"
     d="m 812.47,182.532 v 48.8"
     data-name="Path 389"
     id="Path_389" />
  <path
     style="fill:#ffd500;stroke-width:2"
     inkscape:connector-curvature="0"
     d="m 812,180 6,10 h -12 z"
     data-name="Polygon 32"
     id="Polygon_32" />
  <text
     xml:space="preserve"
     style="font-style:normal;font-weight:normal;font-size:53.33333206px;line-height:1.25;font-family:sans-serif;letter-spacing:0px;word-spacing:0px;fill:#ffffff;fill-opacity:1;stroke:none;stroke-width:2"
     x="63.825775"
     y="89.742165"
     id="text924"><tspan
       sodipodi:role="line"
       id="tspan922"
       x="63.825775"
       y="89.742165"
       style="font-style:normal;font-variant:normal;font-weight:bold;font-stretch:normal;font-size:26.66666603px;font-family:'Segoe Print';-inkscape-font-specification:'Segoe Print Bold';stroke-width:2">Apprentissage</tspan></text>
  <text
     id="text928"
     y="92.504822"
     x="-461.22629"
     style="font-style:normal;font-weight:normal;font-size:53.33333206px;line-height:1.25;font-family:sans-serif;letter-spacing:0px;word-spacing:0px;fill:#ffffff;fill-opacity:1;stroke:none;stroke-width:2"
     xml:space="preserve"
     transform="rotate(-90)"><tspan
       style="font-style:normal;font-variant:normal;font-weight:bold;font-stretch:normal;font-size:26.66666603px;font-family:'Segoe Print';-inkscape-font-specification:'Segoe Print Bold';stroke-width:2"
       y="92.504822"
       x="-461.22629"
       id="tspan926"
       sodipodi:role="line">Rétention</tspan></text>
  <text
     id="text932"
     y="94.236938"
     x="270.23514"
     style="font-style:normal;font-weight:normal;font-size:53.33333206px;line-height:1.25;font-family:sans-serif;letter-spacing:0px;word-spacing:0px;fill:#ffffff;fill-opacity:1;stroke:none;stroke-width:2"
     xml:space="preserve"><tspan
       style="font-style:normal;font-variant:normal;font-weight:bold;font-stretch:normal;font-size:21.33333397px;line-height:0px;font-family:'Segoe Print';-inkscape-font-specification:'Segoe Print Bold';text-align:center;text-anchor:middle;stroke-width:2"
       y="94.236938"
       x="270.23514"
       id="tspan930"
       sodipodi:role="line"
       dy="42">Moins</tspan><tspan
       style="font-style:normal;font-variant:normal;font-weight:bold;font-stretch:normal;font-size:21.33333397px;line-height:0px;font-family:'Segoe Print';-inkscape-font-specification:'Segoe Print Bold';text-align:center;text-anchor:middle;stroke-width:2"
       y="160.90359"
       x="270.23514"
       sodipodi:role="line"
       id="tspan934">familier</tspan></text>
  <text
     xml:space="preserve"
     style="font-style:normal;font-weight:normal;font-size:53.33333206px;line-height:1.25;font-family:sans-serif;letter-spacing:0px;word-spacing:0px;fill:#ffffff;fill-opacity:1;stroke:none;stroke-width:2"
     x="472.49911"
     y="94.236938"
     id="text948"><tspan
       sodipodi:role="line"
       id="tspan944"
       x="472.49911"
       y="94.236938"
       style="font-style:normal;font-variant:normal;font-weight:bold;font-stretch:normal;font-size:21.33333397px;line-height:0px;font-family:'Segoe Print';-inkscape-font-specification:'Segoe Print Bold';text-align:center;text-anchor:middle;stroke-width:2"
       dy="42">Plus</tspan><tspan
       id="tspan946"
       sodipodi:role="line"
       x="472.49911"
       y="160.90359"
       style="font-style:normal;font-variant:normal;font-weight:bold;font-stretch:normal;font-size:21.33333397px;line-height:0px;font-family:'Segoe Print';-inkscape-font-specification:'Segoe Print Bold';text-align:center;text-anchor:middle;stroke-width:2">familier</tspan></text>
  <text
     id="text954"
     y="488.87805"
     x="903.99731"
     style="font-style:normal;font-weight:normal;font-size:53.33333206px;line-height:1.25;font-family:sans-serif;letter-spacing:0px;word-spacing:0px;fill:#ffffff;fill-opacity:1;stroke:none;stroke-width:2"
     xml:space="preserve"><tspan
       style="font-style:normal;font-variant:normal;font-weight:bold;font-stretch:normal;font-size:21.33333397px;line-height:0px;font-family:'Segoe Print';-inkscape-font-specification:'Segoe Print Bold';text-align:center;text-anchor:middle;stroke-width:2"
       y="488.87805"
       x="903.99731"
       sodipodi:role="line"
       id="tspan952"
       dy="30">Courbe</tspan><tspan
       style="font-style:normal;font-variant:normal;font-weight:bold;font-stretch:normal;font-size:21.33333397px;line-height:0px;font-family:'Segoe Print';-inkscape-font-specification:'Segoe Print Bold';text-align:center;text-anchor:middle;stroke-width:2"
       y="555.54468"
       x="903.99731"
       sodipodi:role="line"
       id="tspan958">de l'oubli</tspan></text>
  <text
     xml:space="preserve"
     style="font-style:normal;font-weight:normal;font-size:53.33333206px;line-height:1.25;font-family:sans-serif;letter-spacing:0px;word-spacing:0px;fill:#ffffff;fill-opacity:1;stroke:none;stroke-width:2"
     x="201.01562"
     y="671.69269"
     id="text964"><tspan
       id="tspan962"
       sodipodi:role="line"
       x="201.01562"
       y="671.69269"
       style="font-style:normal;font-variant:normal;font-weight:bold;font-stretch:normal;font-size:21.33333397px;line-height:0px;font-family:'Segoe Print';-inkscape-font-specification:'Segoe Print Bold';text-align:center;text-anchor:middle;stroke-width:2">Jour 0</tspan></text>
  <text
     id="text972"
     y="671.69269"
     x="578.5766"
     style="font-style:normal;font-weight:normal;font-size:53.33333206px;line-height:1.25;font-family:sans-serif;letter-spacing:0px;word-spacing:0px;fill:#ffffff;fill-opacity:1;stroke:none;stroke-width:2"
     xml:space="preserve"><tspan
       style="font-style:normal;font-variant:normal;font-weight:bold;font-stretch:normal;font-size:21.33333397px;line-height:0px;font-family:'Segoe Print';-inkscape-font-specification:'Segoe Print Bold';text-align:center;text-anchor:middle;stroke-width:2"
       y="671.69269"
       x="578.5766"
       sodipodi:role="line"
       id="tspan970">Durée (jours)</tspan></text>
  <g
     aria-label="1ère révision"
     style="font-style:normal;font-weight:normal;font-size:26.66666603px;line-height:1.25;font-family:sans-serif;letter-spacing:0px;word-spacing:0px;fill:#ffffff;fill-opacity:1;stroke:none"
     id="text976"
     transform="scale(2)">
    <path
       d="m 154.20398,243.7843 0.0156,0.20312 q 0.0312,0.41146 -0.8802,0.41146 -0.17709,0 -0.34375,-0.25 -0.0312,-0.0469 -0.0469,-0.0469 -0.099,0 -0.82292,0.23438 -0.15104,0.0521 -0.22395,0.0625 -0.59896,0.19271 -0.90105,0.19271 -0.3177,0 -0.51562,-0.18229 -0.19271,-0.1823 -0.19271,-0.3698 0,-0.2552 0.30208,-0.41666 0.30209,-0.16146 1.10417,-0.30209 0.84375,-0.16666 1.09896,-0.27083 0.026,-0.27083 0.0417,-0.54687 0.0521,-0.89584 0.54166,-3.65105 -0.0417,0.0104 -0.88021,0.4948 -0.76041,0.4427 -1.41145,0.4427 -0.42709,0 -0.42709,-0.36458 0,-0.22917 0.14063,-0.34896 0.14583,-0.125 0.53646,-0.28646 0.46875,-0.1875 1.1927,-0.59895 l 0.77605,-0.44792 q 0.71354,-0.45313 0.91666,-0.45313 0.28646,0 0.4375,0.27605 0.15104,0.27604 0.15104,0.47916 0,0.16667 -0.15625,0.33854 -0.375,1.60417 -0.49479,2.5625 -0.11458,0.95313 -0.11458,1.875 0.28646,-0.0365 1.34896,-0.30729 0.63541,-0.16146 1.30208,-0.16146 0.18229,0.36459 0.18229,0.48959 0,0.18229 -0.0833,0.28646 -0.0833,0.10416 -0.40625,0.21354 -0.32292,0.10416 -1.08854,0.20833 -0.80209,0.11979 -1.09896,0.23438 z"
       style="font-style:normal;font-variant:normal;font-weight:bold;font-stretch:normal;font-size:10.66666698px;line-height:0px;font-family:'Segoe Print';-inkscape-font-specification:'Segoe Print Bold';text-align:start;text-anchor:start"
       id="path886"
       inkscape:connector-curvature="0" />
    <path
       d="m 160.6808,239.04576 q 0,0.35208 -0.59245,0.84296 -0.59244,0.4875 -1.33723,0.4875 -0.57214,0 -0.90053,-0.35885 -0.32838,-0.36224 -0.32838,-1.00547 0,-0.94792 0.67031,-1.77734 0.67031,-0.82943 1.43203,-0.82943 0.37917,0 0.60938,0.24036 0.23021,0.24037 0.23021,0.57214 0,0.58906 -0.56537,1.12396 -0.56536,0.53151 -1.44896,0.73463 -0.10156,0.0237 -0.10156,0.12188 0,0.1625 0.14219,0.31146 0.14557,0.14557 0.38594,0.14557 0.68046,0 1.35078,-0.70078 0.12864,-0.13542 0.25052,-0.13542 0.20312,0 0.20312,0.22683 z m -2.27161,-0.59922 q 0.53489,-0.10834 0.94114,-0.45703 0.40964,-0.3487 0.40964,-0.63308 0,-0.11172 -0.0643,-0.1862 -0.0609,-0.0779 -0.15912,-0.0779 -0.29453,0 -0.65338,0.43333 -0.35886,0.43334 -0.47396,0.92084 z m 0.43333,-2.79974 -0.15911,-0.10495 q -0.14219,-0.088 -0.53828,-0.39609 -0.3961,-0.30808 -0.3961,-0.50443 0,-0.0914 0.14219,-0.20651 0.14219,-0.11511 0.2776,-0.11511 0.0677,0 0.17605,0.0779 0.10833,0.0779 0.45364,0.38932 l 0.74141,0.65677 q 0.23359,0.20651 0.23359,0.36901 0,0.31485 -0.34193,0.31485 -0.10833,0 -0.58906,-0.48073 z"
       style="font-size:64.99999762%;text-align:start;baseline-shift:super;text-anchor:start"
       id="path888"
       inkscape:connector-curvature="0" />
    <path
       d="m 162.08914,238.53117 0.0576,-0.10833 q 0.40963,-0.82266 0.88021,-1.33386 0.47395,-0.51458 0.92421,-0.51458 0.34532,0 0.56198,0.18958 0.22006,0.18959 0.22006,0.45026 0,0.1625 -0.0745,0.28099 -0.0745,0.11511 -0.20651,0.11511 -0.2099,0 -0.38256,-0.17266 -0.12187,-0.11172 -0.19296,-0.11172 -0.25391,0 -0.84974,0.78881 -0.59584,0.7888 -0.71771,1.77395 -0.0372,0.28438 -0.16589,0.3961 -0.12864,0.1151 -0.3487,0.1151 -0.23359,0 -0.33177,-0.26406 -0.0982,-0.26745 -0.0982,-0.87005 0,-0.24714 0.0135,-0.66693 0.0135,-0.39609 0.0779,-0.96823 0.0169,-0.14896 0.0237,-0.23359 0.0305,-0.33177 0.0677,-0.45365 0.0406,-0.12526 0.18281,-0.23359 0.14219,-0.10834 0.31485,-0.10834 0.18281,0 0.2776,0.10495 0.0948,0.10495 0.0948,0.23021 0,0.15912 -0.15234,0.66016 -0.0542,0.17265 -0.0914,0.41302 z"
       style="font-size:64.99999762%;text-align:start;baseline-shift:super;text-anchor:start"
       id="path890"
       inkscape:connector-curvature="0" />
    <path
       d="m 167.83419,239.04576 q 0,0.35208 -0.59245,0.84296 -0.59245,0.4875 -1.33724,0.4875 -0.57213,0 -0.90052,-0.35885 -0.32839,-0.36224 -0.32839,-1.00547 0,-0.94792 0.67032,-1.77734 0.67031,-0.82943 1.43203,-0.82943 0.37916,0 0.60937,0.24036 0.23021,0.24037 0.23021,0.57214 0,0.58906 -0.56536,1.12396 -0.56537,0.53151 -1.44896,0.73463 -0.10156,0.0237 -0.10156,0.12188 0,0.1625 0.14218,0.31146 0.14558,0.14557 0.38594,0.14557 0.68047,0 1.35078,-0.70078 0.12865,-0.13542 0.25052,-0.13542 0.20313,0 0.20313,0.22683 z m -2.27162,-0.59922 q 0.5349,-0.10834 0.94115,-0.45703 0.40963,-0.3487 0.40963,-0.63308 0,-0.11172 -0.0643,-0.1862 -0.0609,-0.0779 -0.15911,-0.0779 -0.29453,0 -0.65339,0.43333 -0.35885,0.43334 -0.47396,0.92084 z"
       style="font-size:64.99999762%;text-align:start;baseline-shift:super;text-anchor:start"
       id="path892"
       inkscape:connector-curvature="0" />
    <path
       d="m 151.39148,254.227 0.0885,-0.16666 q 0.63021,-1.26563 1.35417,-2.05209 0.72916,-0.79166 1.42187,-0.79166 0.53125,0 0.86459,0.29166 0.33854,0.29167 0.33854,0.69271 0,0.25 -0.11459,0.43229 -0.11458,0.17709 -0.3177,0.17709 -0.32292,0 -0.58855,-0.26563 -0.1875,-0.17187 -0.29687,-0.17187 -0.39063,0 -1.30729,1.21354 -0.91667,1.21354 -1.10417,2.72917 -0.0573,0.4375 -0.25521,0.60937 -0.19791,0.17708 -0.53646,0.17708 -0.35937,0 -0.51041,-0.40625 -0.15104,-0.41145 -0.15104,-1.33854 0,-0.38021 0.0208,-1.02604 0.0208,-0.60937 0.11979,-1.48958 0.026,-0.22917 0.0365,-0.35938 0.0469,-0.51041 0.10417,-0.69791 0.0625,-0.19271 0.28125,-0.35938 0.21875,-0.16667 0.48437,-0.16667 0.28125,0 0.42708,0.16146 0.14584,0.16146 0.14584,0.35417 0,0.24479 -0.23438,1.01562 -0.0833,0.26563 -0.14062,0.63542 z"
       style="font-style:normal;font-variant:normal;font-weight:bold;font-stretch:normal;font-size:10.66666698px;line-height:0px;font-family:'Segoe Print';-inkscape-font-specification:'Segoe Print Bold';text-align:start;text-anchor:start"
       id="path894"
       inkscape:connector-curvature="0" />
    <path
       d="m 160.16231,255.01867 q 0,0.54167 -0.91146,1.29688 -0.91145,0.75 -2.05729,0.75 -0.88021,0 -1.38541,-0.55209 -0.50521,-0.55729 -0.50521,-1.54687 0,-1.45834 1.03125,-2.73438 1.03125,-1.27604 2.20312,-1.27604 0.58334,0 0.9375,0.36979 0.35417,0.36979 0.35417,0.88021 0,0.90625 -0.86979,1.72917 -0.86979,0.81771 -2.22917,1.13021 -0.15625,0.0365 -0.15625,0.1875 0,0.25 0.21875,0.47916 0.22396,0.22396 0.59375,0.22396 1.04688,0 2.07813,-1.07812 0.19791,-0.20834 0.38541,-0.20834 0.3125,0 0.3125,0.34896 z m -3.49479,-0.92187 q 0.82292,-0.16667 1.44792,-0.70313 0.63021,-0.53646 0.63021,-0.97396 0,-0.17187 -0.099,-0.28646 -0.0938,-0.11979 -0.24479,-0.11979 -0.45313,0 -1.00521,0.66667 -0.55209,0.66667 -0.72917,1.41667 z m 1.96354,-4.39584 h 0.005 q -0.11979,0.11979 -0.85417,0.625 -0.27083,0.1875 -0.32291,0.22917 -0.0417,0.0417 -0.14063,0.0417 -0.20312,0 -0.32291,-0.125 -0.1198,-0.13021 -0.1198,-0.31771 0,-0.30729 0.7448,-0.875 h -0.005 q 0.20312,-0.15625 0.36458,-0.28646 0.91146,-0.73438 1.15104,-0.89063 0.24479,-0.15625 0.35938,-0.15625 0.13541,0 0.30208,0.25521 0.17188,0.25521 0.17188,0.38542 0,0.11458 -0.14584,0.29167 -0.14583,0.17187 -0.35937,0.27604 -0.23959,0.10416 -0.82813,0.54687 z"
       style="font-style:normal;font-variant:normal;font-weight:bold;font-stretch:normal;font-size:10.66666698px;line-height:0px;font-family:'Segoe Print';-inkscape-font-specification:'Segoe Print Bold';text-align:start;text-anchor:start"
       id="path896"
       inkscape:connector-curvature="0" />
    <path
       d="m 161.98523,256.75825 q 0.005,-0.34375 -0.41146,-1.47916 -0.83854,-2.24479 -0.83854,-3.19792 0,-0.85417 0.67187,-0.85417 0.65625,0 0.65625,0.78125 0,0.5 0.0208,0.71355 0.026,0.20833 0.16146,0.76562 0.14062,0.55208 0.27604,0.92188 0.0781,0.22395 0.1875,0.58333 0.0625,0.22396 0.10937,0.3125 0.0312,-0.0469 0.21875,-0.40625 0.10938,-0.21875 0.73959,-1.23958 0.6302,-1.02605 1.10416,-1.63542 0.47917,-0.60938 0.71354,-0.74479 0.23438,-0.13542 0.4948,-0.13542 0.27083,0 0.4427,0.17708 0.17709,0.17709 0.17709,0.4323 0,0.30208 -0.4375,0.59375 -0.42709,0.29166 -1.16667,1.33333 -0.73437,1.04167 -1.58333,2.61979 -0.47917,0.90104 -0.85938,0.90104 -0.32812,0 -0.67708,-0.44271 z"
       style="font-style:normal;font-variant:normal;font-weight:bold;font-stretch:normal;font-size:10.66666698px;line-height:0px;font-family:'Segoe Print';-inkscape-font-specification:'Segoe Print Bold';text-align:start;text-anchor:start"
       id="path898"
       inkscape:connector-curvature="0" />
    <path
       d="m 169.72481,249.07075 q 0,0.3698 -0.33333,0.65105 -0.33333,0.27604 -0.57813,0.27604 -0.3125,0 -0.55729,-0.26042 -0.23958,-0.26042 -0.23958,-0.52083 0,-0.375 0.23958,-0.60417 0.23959,-0.23437 0.6875,-0.23437 0.34896,0 0.5625,0.20833 0.21875,0.20312 0.21875,0.48437 z m -2.51562,4.28125 v 0.005 q 0.16666,-0.94791 0.16666,-1.08333 0,-0.38542 0.16667,-0.64583 0.17188,-0.26042 0.47396,-0.26042 0.35417,0 0.55208,0.16667 0.19792,0.16666 0.19792,0.375 0,0.20833 -0.19271,0.85937 l -0.0312,0.11458 q -0.28646,1.00521 -0.34375,1.64063 -0.0573,0.63542 -0.0573,1.02604 0,0.31771 0.10937,0.84896 0.0156,0.0938 0.0156,0.15625 0,0.11979 -0.22917,0.32292 -0.22396,0.20312 -0.48437,0.20312 -0.6875,0 -0.6875,-1.04167 0,-0.88541 0.25,-2.15625 0.0521,-0.28125 0.0938,-0.53125 z"
       style="font-style:normal;font-variant:normal;font-weight:bold;font-stretch:normal;font-size:10.66666698px;line-height:0px;font-family:'Segoe Print';-inkscape-font-specification:'Segoe Print Bold';text-align:start;text-anchor:start"
       id="path900"
       inkscape:connector-curvature="0" />
    <path
       d="m 172.35502,255.48742 q -0.0208,-0.28125 -0.89583,-0.6875 -1.07292,-0.51562 -1.36979,-0.88542 -0.29688,-0.375 -0.29688,-0.8125 0,-0.92187 1.03125,-1.60937 1.03646,-0.69271 1.93229,-0.69271 0.88021,0 0.88021,0.76563 0,0.20312 -0.20312,0.36458 -0.19792,0.16146 -0.33855,0.16146 -0.0573,0 -0.20312,-0.0729 -0.14583,-0.0729 -0.22396,-0.0729 -0.46354,0 -1.02083,0.3125 -0.55729,0.3125 -0.55729,0.72917 0,0.20313 0.19791,0.39583 0.19792,0.1875 0.80729,0.47396 0.90105,0.42709 1.1875,0.77084 0.28646,0.34375 0.28646,0.76041 0,0.76042 -1.03125,1.27084 -1.02604,0.5052 -2.30729,0.5052 -0.94271,0 -0.94271,-0.68229 0,-0.25 0.19792,-0.42708 0.19792,-0.17708 0.44271,-0.17708 0.099,0 0.30729,0.0729 0.20833,0.0781 0.38542,0.0781 0.48958,0 1.02604,-0.15625 0.53646,-0.15625 0.70833,-0.38542 z"
       style="font-style:normal;font-variant:normal;font-weight:bold;font-stretch:normal;font-size:10.66666698px;line-height:0px;font-family:'Segoe Print';-inkscape-font-specification:'Segoe Print Bold';text-align:start;text-anchor:start"
       id="path902"
       inkscape:connector-curvature="0" />
    <path
       d="m 177.28731,249.07075 q 0,0.3698 -0.33333,0.65105 -0.33333,0.27604 -0.57813,0.27604 -0.3125,0 -0.55729,-0.26042 -0.23958,-0.26042 -0.23958,-0.52083 0,-0.375 0.23958,-0.60417 0.23959,-0.23437 0.6875,-0.23437 0.34896,0 0.5625,0.20833 0.21875,0.20312 0.21875,0.48437 z m -2.51562,4.28125 v 0.005 q 0.16666,-0.94791 0.16666,-1.08333 0,-0.38542 0.16667,-0.64583 0.17188,-0.26042 0.47396,-0.26042 0.35417,0 0.55208,0.16667 0.19792,0.16666 0.19792,0.375 0,0.20833 -0.19271,0.85937 l -0.0312,0.11458 q -0.28646,1.00521 -0.34375,1.64063 -0.0573,0.63542 -0.0573,1.02604 0,0.31771 0.10937,0.84896 0.0156,0.0938 0.0156,0.15625 0,0.11979 -0.22917,0.32292 -0.22396,0.20312 -0.48437,0.20312 -0.6875,0 -0.6875,-1.04167 0,-0.88541 0.25,-2.15625 0.0521,-0.28125 0.0938,-0.53125 z"
       style="font-style:normal;font-variant:normal;font-weight:bold;font-stretch:normal;font-size:10.66666698px;line-height:0px;font-family:'Segoe Print';-inkscape-font-specification:'Segoe Print Bold';text-align:start;text-anchor:start"
       id="path904"
       inkscape:connector-curvature="0" />
    <path
       d="m 182.38627,254.16971 q -0.34896,1.21875 -1.32812,2.05729 -0.97396,0.83334 -1.94792,0.83334 -0.77083,0 -1.27083,-0.5625 -0.5,-0.56771 -0.5,-1.39063 0,-1.34375 0.91666,-2.64583 0.91667,-1.30208 2.22396,-1.30208 0.89063,0 1.44271,0.66145 0.55208,0.65625 0.55208,1.56771 0,0.39584 -0.0885,0.77604 z m -2.70833,-1.64583 q -0.36459,0.32292 -0.71354,1.03125 -0.34896,0.70833 -0.34896,1.42187 0,0.4323 0.15625,0.71355 0.16146,0.28125 0.42187,0.28125 0.64584,0 1.34375,-0.76563 0.69792,-0.76562 0.69792,-1.71875 0,-0.53646 -0.22917,-0.88021 -0.22396,-0.34896 -0.63021,-0.34896 -0.38541,0 -0.6927,0.26563 z"
       style="font-style:normal;font-variant:normal;font-weight:bold;font-stretch:normal;font-size:10.66666698px;line-height:0px;font-family:'Segoe Print';-inkscape-font-specification:'Segoe Print Bold';text-align:start;text-anchor:start"
       id="path906"
       inkscape:connector-curvature="0" />
    <path
       d="m 187.86023,256.04992 q -0.25,-0.46875 -0.36458,-1.75 -0.11458,-1.33333 -0.51042,-1.33333 -0.375,0 -1.29687,1.39062 -0.92188,1.38542 -1.13542,2.04688 -0.0469,0.19791 -0.17708,0.32812 -0.125,0.13021 -0.25,0.13021 -0.79167,0 -0.79167,-0.72396 0,-0.24479 0.15625,-1.11458 0.20313,-1.125 0.20313,-2.75 0,-0.24479 0.21354,-0.52083 0.21354,-0.28125 0.45312,-0.28125 0.30209,0 0.46354,0.15104 0.16146,0.15104 0.16146,0.80208 0,0.49479 -0.29687,1.91667 1.13021,-2.64584 2.52083,-2.64584 1.20833,0 1.41667,1.90105 0.20833,1.9375 0.47916,1.9375 0.1198,0 0.27605,-0.0521 0.1875,-0.0625 0.29687,-0.0625 0.25,0 0.25,0.29167 0,0.26562 -0.34375,0.56771 -0.34375,0.29687 -0.86458,0.29687 -0.60417,0 -0.86459,-0.52604 z"
       style="font-style:normal;font-variant:normal;font-weight:bold;font-stretch:normal;font-size:10.66666698px;line-height:0px;font-family:'Segoe Print';-inkscape-font-specification:'Segoe Print Bold';text-align:start;text-anchor:start"
       id="path908"
       inkscape:connector-curvature="0" />
  </g>
  <g
     aria-label="2ème révision"
     style="font-style:normal;font-weight:normal;font-size:26.66666603px;line-height:1.25;font-family:sans-serif;letter-spacing:0px;word-spacing:0px;fill:#ffffff;fill-opacity:1;stroke:none"
     id="text988"
     transform="scale(2)">
    <path
       d="m 186.46322,198.74438 q 0.61458,-0.15104 1.91666,-0.15104 0.23959,0 0.82292,0.0729 0.58333,0.0729 0.77083,0.0729 0.17709,0 0.40104,-0.099 0.21875,-0.099 0.46355,-0.099 0.17708,0 0.34375,0.18229 0.16666,0.17708 0.16666,0.3125 0,0.42188 -0.45312,0.63021 -0.44792,0.20833 -0.875,0.20833 -0.54688,0 -0.76042,-0.0625 -0.73958,-0.20833 -1.94271,-0.20833 -0.57291,0 -1.0625,0.0938 -0.48437,0.0885 -0.70833,0.19792 -0.21875,0.10937 -0.41667,0.33333 -0.23437,0.27083 -0.61458,0.27083 -0.58854,0 -0.58854,-0.49479 0,-0.4375 0.29687,-0.82292 0.30209,-0.39062 1.19792,-0.91145 1.18229,-0.6823 1.84375,-1.22396 0.66146,-0.54688 1.07812,-1.15625 0.41667,-0.61459 0.41667,-0.94271 0,-0.38021 -0.29687,-0.65104 -0.29167,-0.27604 -0.7448,-0.27604 -0.20312,0 -0.76562,0.33333 -0.55729,0.32812 -0.91146,0.73958 -0.23958,0.27604 -0.75,0.27604 -0.19792,0 -0.35937,-0.2552 -0.15625,-0.25521 -0.15625,-0.45313 0,-0.22396 0.40625,-0.48958 0.1302,-0.0833 0.30729,-0.20834 0.86979,-0.625 1.35416,-0.83854 0.48959,-0.21354 1.27605,-0.21354 0.70312,0 1.34375,0.61458 0.64062,0.60938 0.64062,1.27605 0,0.89062 -1.02604,2.03125 -1.02083,1.14062 -2.61458,1.91145 z"
       style="font-style:normal;font-variant:normal;font-weight:bold;font-stretch:normal;font-size:10.66666698px;line-height:0px;font-family:'Segoe Print';-inkscape-font-specification:'Segoe Print Bold';text-align:start;text-anchor:start"
       id="path911"
       inkscape:connector-curvature="0" />
    <path
       d="m 194.84108,194.54751 q 0,0.35208 -0.59245,0.84297 -0.59244,0.4875 -1.33724,0.4875 -0.57213,0 -0.90052,-0.35886 -0.32838,-0.36223 -0.32838,-1.00546 0,-0.94792 0.67031,-1.77735 0.67031,-0.82943 1.43203,-0.82943 0.37917,0 0.60938,0.24037 0.2302,0.24036 0.2302,0.57213 0,0.58907 -0.56536,1.12396 -0.56536,0.53151 -1.44896,0.73464 -0.10156,0.0237 -0.10156,0.12187 0,0.1625 0.14219,0.31146 0.14557,0.14558 0.38593,0.14558 0.68047,0 1.35079,-0.70079 0.12864,-0.13541 0.25052,-0.13541 0.20312,0 0.20312,0.22682 z m -2.27161,-0.59922 q 0.53489,-0.10833 0.94114,-0.45703 0.40964,-0.3487 0.40964,-0.63307 0,-0.11172 -0.0643,-0.1862 -0.0609,-0.0779 -0.15911,-0.0779 -0.29453,0 -0.65339,0.43334 -0.35885,0.43333 -0.47395,0.92083 z m 0.43333,-2.79974 -0.15911,-0.10495 q -0.14219,-0.088 -0.53829,-0.39609 -0.39609,-0.30807 -0.39609,-0.50443 0,-0.0914 0.14219,-0.20651 0.14219,-0.1151 0.2776,-0.1151 0.0677,0 0.17604,0.0779 0.10834,0.0779 0.45365,0.38933 l 0.74141,0.65677 q 0.23359,0.20651 0.23359,0.36901 0,0.31484 -0.34193,0.31484 -0.10833,0 -0.58906,-0.48073 z"
       style="font-size:64.99999762%;baseline-shift:super"
       id="path913"
       inkscape:connector-curvature="0" />
    <path
       d="m 196.29681,195.51235 q -0.0406,0.3487 -0.38932,0.3487 -0.44349,0 -0.44349,-0.63984 0,-1.03594 0.11172,-1.77058 0.088,-0.57213 0.088,-1.12395 0,-0.13203 0.0846,-0.22006 0.0846,-0.0914 0.23698,-0.0914 0.50781,0 0.50781,0.61614 0,0.19974 -0.17942,1.01901 -0.10834,0.4875 -0.10834,0.70756 0.96823,-2.12605 1.74688,-2.12605 0.31484,0 0.50443,0.25053 0.19296,0.25052 0.19974,1.11041 0.003,0.78542 0.0812,0.78542 0.0609,0 0.42317,-0.76172 0.40287,-0.84297 0.68724,-1.1138 0.28776,-0.27084 0.60261,-0.27084 0.37578,0 0.54505,0.325 0.16927,0.32162 0.23698,1.09011 0.0508,0.60937 0.13541,0.92083 0.088,0.31146 0.29792,0.41302 0.16927,0.0813 0.16927,0.24375 0,0.14558 -0.19297,0.29453 -0.19297,0.14558 -0.39271,0.14558 -0.34531,0 -0.54166,-0.33854 -0.19297,-0.34193 -0.26068,-1.36771 -0.0372,-0.49427 -0.0812,-0.65339 -0.0406,-0.1625 -0.12526,-0.1625 -0.0745,0 -0.21667,0.24375 -0.14218,0.24037 -0.49088,0.96146 -0.30807,0.65 -0.53151,0.90729 -0.22005,0.25729 -0.47396,0.25729 -0.19635,0 -0.39609,-0.16927 -0.19636,-0.16927 -0.21329,-1.2289 -0.0169,-0.94453 -0.12187,-0.94453 -0.14219,0 -0.68385,0.83958 -0.54167,0.83958 -0.81589,1.50312 z"
       style="font-size:64.99999762%;baseline-shift:super"
       id="path915"
       inkscape:connector-curvature="0" />
    <path
       d="m 205.36634,194.54751 q 0,0.35208 -0.59245,0.84297 -0.59244,0.4875 -1.33724,0.4875 -0.57213,0 -0.90052,-0.35886 -0.32838,-0.36223 -0.32838,-1.00546 0,-0.94792 0.67031,-1.77735 0.67031,-0.82943 1.43203,-0.82943 0.37917,0 0.60938,0.24037 0.23021,0.24036 0.23021,0.57213 0,0.58907 -0.56537,1.12396 -0.56536,0.53151 -1.44896,0.73464 -0.10156,0.0237 -0.10156,0.12187 0,0.1625 0.14219,0.31146 0.14557,0.14558 0.38594,0.14558 0.68046,0 1.35078,-0.70079 0.12864,-0.13541 0.25052,-0.13541 0.20312,0 0.20312,0.22682 z m -2.27161,-0.59922 q 0.53489,-0.10833 0.94114,-0.45703 0.40964,-0.3487 0.40964,-0.63307 0,-0.11172 -0.0643,-0.1862 -0.0609,-0.0779 -0.15912,-0.0779 -0.29453,0 -0.65338,0.43334 -0.35886,0.43333 -0.47396,0.92083 z"
       style="font-size:64.99999762%;baseline-shift:super"
       id="path917"
       inkscape:connector-curvature="0" />
    <path
       d="m 185.55176,209.72876 0.0885,-0.16667 q 0.63021,-1.26562 1.35417,-2.05208 0.72916,-0.79167 1.42187,-0.79167 0.53125,0 0.86458,0.29167 0.33855,0.29167 0.33855,0.69271 0,0.25 -0.11459,0.43229 -0.11458,0.17708 -0.31771,0.17708 -0.32291,0 -0.58854,-0.26562 -0.1875,-0.17188 -0.29687,-0.17188 -0.39063,0 -1.30729,1.21354 -0.91667,1.21355 -1.10417,2.72917 -0.0573,0.4375 -0.25521,0.60938 -0.19792,0.17708 -0.53646,0.17708 -0.35937,0 -0.51041,-0.40625 -0.15105,-0.41146 -0.15105,-1.33854 0,-0.38021 0.0208,-1.02604 0.0208,-0.60938 0.11979,-1.48959 0.026,-0.22916 0.0365,-0.35937 0.0469,-0.51042 0.10416,-0.69792 0.0625,-0.19271 0.28125,-0.35937 0.21875,-0.16667 0.48438,-0.16667 0.28125,0 0.42708,0.16146 0.14584,0.16146 0.14584,0.35416 0,0.2448 -0.23438,1.01563 -0.0833,0.26562 -0.14062,0.63542 z"
       style="font-style:normal;font-variant:normal;font-weight:bold;font-stretch:normal;font-size:10.66666698px;line-height:0px;font-family:'Segoe Print';-inkscape-font-specification:'Segoe Print Bold';text-align:start;text-anchor:start"
       id="path919"
       inkscape:connector-curvature="0" />
    <path
       d="m 194.32259,210.52043 q 0,0.54166 -0.91146,1.29687 -0.91146,0.75 -2.05729,0.75 -0.88021,0 -1.38542,-0.55208 -0.5052,-0.55729 -0.5052,-1.54688 0,-1.45833 1.03125,-2.73437 1.03125,-1.27604 2.20312,-1.27604 0.58333,0 0.9375,0.36979 0.35417,0.36979 0.35417,0.88021 0,0.90625 -0.86979,1.72916 -0.8698,0.81771 -2.22917,1.13021 -0.15625,0.0365 -0.15625,0.1875 0,0.25 0.21875,0.47917 0.22396,0.22396 0.59375,0.22396 1.04687,0 2.07812,-1.07813 0.19792,-0.20833 0.38542,-0.20833 0.3125,0 0.3125,0.34896 z m -3.49479,-0.92188 q 0.82292,-0.16667 1.44792,-0.70312 0.6302,-0.53646 0.6302,-0.97396 0,-0.17188 -0.099,-0.28646 -0.0938,-0.11979 -0.2448,-0.11979 -0.45312,0 -1.0052,0.66666 -0.55209,0.66667 -0.72917,1.41667 z m 1.96354,-4.39583 h 0.005 q -0.11979,0.11979 -0.85417,0.625 -0.27083,0.1875 -0.32291,0.22916 -0.0417,0.0417 -0.14063,0.0417 -0.20312,0 -0.32292,-0.125 -0.11979,-0.13021 -0.11979,-0.31771 0,-0.30729 0.74479,-0.875 h -0.005 q 0.20312,-0.15625 0.36458,-0.28646 0.91146,-0.73437 1.15104,-0.89062 0.24479,-0.15625 0.35938,-0.15625 0.13541,0 0.30208,0.25521 0.17187,0.25521 0.17187,0.38541 0,0.11459 -0.14583,0.29167 -0.14583,0.17188 -0.35937,0.27604 -0.23959,0.10417 -0.82813,0.54688 z"
       style="font-style:normal;font-variant:normal;font-weight:bold;font-stretch:normal;font-size:10.66666698px;line-height:0px;font-family:'Segoe Print';-inkscape-font-specification:'Segoe Print Bold';text-align:start;text-anchor:start"
       id="path921"
       inkscape:connector-curvature="0" />
    <path
       d="m 196.14551,212.26001 q 0.005,-0.34375 -0.41146,-1.47917 -0.83854,-2.24479 -0.83854,-3.19791 0,-0.85417 0.67187,-0.85417 0.65625,0 0.65625,0.78125 0,0.5 0.0208,0.71354 0.026,0.20833 0.16145,0.76563 0.14063,0.55208 0.27605,0.92187 0.0781,0.22396 0.1875,0.58333 0.0625,0.22396 0.10937,0.3125 0.0312,-0.0469 0.21875,-0.40625 0.10938,-0.21875 0.73958,-1.23958 0.63021,-1.02604 1.10417,-1.63542 0.47917,-0.60937 0.71354,-0.74479 0.23438,-0.13541 0.49479,-0.13541 0.27084,0 0.44271,0.17708 0.17709,0.17708 0.17709,0.43229 0,0.30208 -0.4375,0.59375 -0.42709,0.29167 -1.16667,1.33333 -0.73438,1.04167 -1.58333,2.6198 -0.47917,0.90104 -0.85938,0.90104 -0.32812,0 -0.67708,-0.44271 z"
       style="font-style:normal;font-variant:normal;font-weight:bold;font-stretch:normal;font-size:10.66666698px;line-height:0px;font-family:'Segoe Print';-inkscape-font-specification:'Segoe Print Bold';text-align:start;text-anchor:start"
       id="path923"
       inkscape:connector-curvature="0" />
    <path
       d="m 203.88509,204.57251 q 0,0.36979 -0.33333,0.65104 -0.33334,0.27604 -0.57813,0.27604 -0.3125,0 -0.55729,-0.26041 -0.23958,-0.26042 -0.23958,-0.52084 0,-0.375 0.23958,-0.60416 0.23958,-0.23438 0.6875,-0.23438 0.34896,0 0.5625,0.20833 0.21875,0.20313 0.21875,0.48438 z m -2.51562,4.28125 v 0.005 q 0.16666,-0.94792 0.16666,-1.08334 0,-0.38541 0.16667,-0.64583 0.17187,-0.26042 0.47396,-0.26042 0.35416,0 0.55208,0.16667 0.19792,0.16667 0.19792,0.375 0,0.20833 -0.19271,0.85938 l -0.0312,0.11458 q -0.28646,1.00521 -0.34375,1.64062 -0.0573,0.63542 -0.0573,1.02605 0,0.3177 0.10937,0.84895 0.0156,0.0938 0.0156,0.15625 0,0.1198 -0.22917,0.32292 -0.22396,0.20313 -0.48437,0.20313 -0.6875,0 -0.6875,-1.04167 0,-0.88542 0.25,-2.15625 0.0521,-0.28125 0.0938,-0.53125 z"
       style="font-style:normal;font-variant:normal;font-weight:bold;font-stretch:normal;font-size:10.66666698px;line-height:0px;font-family:'Segoe Print';-inkscape-font-specification:'Segoe Print Bold';text-align:start;text-anchor:start"
       id="path925"
       inkscape:connector-curvature="0" />
    <path
       d="m 206.5153,210.98918 q -0.0208,-0.28125 -0.89583,-0.6875 -1.07292,-0.51563 -1.3698,-0.88542 -0.29687,-0.375 -0.29687,-0.8125 0,-0.92188 1.03125,-1.60938 1.03646,-0.6927 1.93229,-0.6927 0.88021,0 0.88021,0.76562 0,0.20313 -0.20313,0.36458 -0.19791,0.16146 -0.33854,0.16146 -0.0573,0 -0.20312,-0.0729 -0.14584,-0.0729 -0.22396,-0.0729 -0.46354,0 -1.02083,0.3125 -0.5573,0.3125 -0.5573,0.72917 0,0.20312 0.19792,0.39583 0.19792,0.1875 0.80729,0.47396 0.90104,0.42708 1.1875,0.77083 0.28646,0.34375 0.28646,0.76042 0,0.76041 -1.03125,1.27083 -1.02604,0.50521 -2.30729,0.50521 -0.94271,0 -0.94271,-0.68229 0,-0.25 0.19792,-0.42709 0.19791,-0.17708 0.44271,-0.17708 0.099,0 0.30729,0.0729 0.20833,0.0781 0.38541,0.0781 0.48959,0 1.02605,-0.15625 0.53645,-0.15625 0.70833,-0.38541 z"
       style="font-style:normal;font-variant:normal;font-weight:bold;font-stretch:normal;font-size:10.66666698px;line-height:0px;font-family:'Segoe Print';-inkscape-font-specification:'Segoe Print Bold';text-align:start;text-anchor:start"
       id="path927"
       inkscape:connector-curvature="0" />
    <path
       d="m 211.44759,204.57251 q 0,0.36979 -0.33333,0.65104 -0.33334,0.27604 -0.57813,0.27604 -0.3125,0 -0.55729,-0.26041 -0.23958,-0.26042 -0.23958,-0.52084 0,-0.375 0.23958,-0.60416 0.23958,-0.23438 0.6875,-0.23438 0.34896,0 0.5625,0.20833 0.21875,0.20313 0.21875,0.48438 z m -2.51562,4.28125 v 0.005 q 0.16666,-0.94792 0.16666,-1.08334 0,-0.38541 0.16667,-0.64583 0.17187,-0.26042 0.47396,-0.26042 0.35416,0 0.55208,0.16667 0.19792,0.16667 0.19792,0.375 0,0.20833 -0.19271,0.85938 l -0.0312,0.11458 q -0.28646,1.00521 -0.34375,1.64062 -0.0573,0.63542 -0.0573,1.02605 0,0.3177 0.10937,0.84895 0.0156,0.0938 0.0156,0.15625 0,0.1198 -0.22917,0.32292 -0.22396,0.20313 -0.48437,0.20313 -0.6875,0 -0.6875,-1.04167 0,-0.88542 0.25,-2.15625 0.0521,-0.28125 0.0938,-0.53125 z"
       style="font-style:normal;font-variant:normal;font-weight:bold;font-stretch:normal;font-size:10.66666698px;line-height:0px;font-family:'Segoe Print';-inkscape-font-specification:'Segoe Print Bold';text-align:start;text-anchor:start"
       id="path929"
       inkscape:connector-curvature="0" />
    <path
       d="m 216.54655,209.67147 q -0.34896,1.21875 -1.32813,2.05729 -0.97395,0.83333 -1.94791,0.83333 -0.77084,0 -1.27084,-0.5625 -0.5,-0.56771 -0.5,-1.39062 0,-1.34375 0.91667,-2.64584 0.91667,-1.30208 2.22396,-1.30208 0.89062,0 1.44271,0.66146 0.55208,0.65625 0.55208,1.56771 0,0.39583 -0.0885,0.77604 z m -2.70833,-1.64584 q -0.36459,0.32292 -0.71355,1.03125 -0.34895,0.70834 -0.34895,1.42188 0,0.43229 0.15625,0.71354 0.16145,0.28125 0.42187,0.28125 0.64583,0 1.34375,-0.76562 0.69792,-0.76563 0.69792,-1.71875 0,-0.53646 -0.22917,-0.88021 -0.22396,-0.34896 -0.63021,-0.34896 -0.38541,0 -0.69271,0.26562 z"
       style="font-style:normal;font-variant:normal;font-weight:bold;font-stretch:normal;font-size:10.66666698px;line-height:0px;font-family:'Segoe Print';-inkscape-font-specification:'Segoe Print Bold';text-align:start;text-anchor:start"
       id="path931"
       inkscape:connector-curvature="0" />
    <path
       d="m 222.02051,211.55168 q -0.25,-0.46875 -0.36458,-1.75 -0.11459,-1.33334 -0.51042,-1.33334 -0.375,0 -1.29687,1.39063 -0.92188,1.38541 -1.13542,2.04687 -0.0469,0.19792 -0.17708,0.32813 -0.125,0.13021 -0.25,0.13021 -0.79167,0 -0.79167,-0.72396 0,-0.24479 0.15625,-1.11459 0.20312,-1.125 0.20312,-2.75 0,-0.24479 0.21355,-0.52083 0.21354,-0.28125 0.45312,-0.28125 0.30208,0 0.46354,0.15104 0.16146,0.15104 0.16146,0.80209 0,0.49479 -0.29687,1.91666 1.1302,-2.64583 2.52083,-2.64583 1.20833,0 1.41667,1.90104 0.20833,1.9375 0.47916,1.9375 0.11979,0 0.27604,-0.0521 0.1875,-0.0625 0.29688,-0.0625 0.25,0 0.25,0.29166 0,0.26563 -0.34375,0.56771 -0.34375,0.29688 -0.86458,0.29688 -0.60417,0 -0.86459,-0.52604 z"
       style="font-style:normal;font-variant:normal;font-weight:bold;font-stretch:normal;font-size:10.66666698px;line-height:0px;font-family:'Segoe Print';-inkscape-font-specification:'Segoe Print Bold';text-align:start;text-anchor:start"
       id="path933"
       inkscape:connector-curvature="0" />
  </g>
  <g
     aria-label="3ème révision"
     style="font-style:normal;font-weight:normal;font-size:26.66666603px;line-height:1.25;font-family:sans-serif;letter-spacing:0px;word-spacing:0px;fill:#ffffff;fill-opacity:1;stroke:none"
     id="text998"
     transform="scale(2)">
    <path
       d="m 227.14169,158.26642 q -0.63021,0 -0.63021,-0.36458 0,-0.20312 0.14584,-0.43229 0.15104,-0.23438 1.08333,-0.95313 0.93229,-0.72395 1.69792,-1.11979 -0.10938,0 -1.44792,0.23438 -1.30729,0.23437 -1.47396,0.23437 -1.05729,0 -1.05729,-0.9375 0,-0.21354 0.15625,-0.33854 0.16146,-0.125 0.39583,-0.125 0.17188,0 0.5,0.15625 0.21355,0.10417 0.41667,0.10417 0.24479,0 0.75521,-0.0521 1.29167,-0.125 2.23958,-0.16666 0.59375,-0.026 0.84896,0.0938 0.25521,0.11458 0.25521,0.44271 0,0.28645 -0.23958,0.53645 -0.23959,0.2448 -1.23438,0.78646 -0.80208,0.4375 -0.96875,0.63021 0.11458,-0.0104 0.36979,-0.0417 0.28646,-0.0312 0.42709,-0.0312 1.07291,0 1.65625,0.41667 0.58333,0.41667 0.58333,1.17708 0,1.17188 -1.46354,2.01563 -1.46354,0.84375 -3.05209,0.84375 -0.84375,0 -1.39062,-0.1875 -0.54688,-0.1875 -0.54688,-0.73958 0,-0.63021 0.69271,-0.63021 0.0938,0 0.21875,0.0625 0.73959,0.36979 1.24479,0.36979 1.09896,0 2.0625,-0.43229 0.96355,-0.4375 0.96355,-1.17188 0,-0.41666 -0.42709,-0.58333 -0.42708,-0.16667 -1.21875,-0.16667 -0.90104,0 -1.5625,0.36979 z"
       style="font-style:normal;font-variant:normal;font-weight:bold;font-stretch:normal;font-size:10.66666698px;line-height:0px;font-family:'Segoe Print';-inkscape-font-specification:'Segoe Print Bold';text-align:start;text-anchor:start"
       id="path936"
       inkscape:connector-curvature="0" />
    <path
       d="m 235.74352,155.89247 q 0,0.35208 -0.59245,0.84296 -0.59245,0.4875 -1.33724,0.4875 -0.57214,0 -0.90052,-0.35885 -0.32839,-0.36224 -0.32839,-1.00547 0,-0.94792 0.67031,-1.77734 0.67032,-0.82943 1.43204,-0.82943 0.37916,0 0.60937,0.24037 0.23021,0.24036 0.23021,0.57213 0,0.58906 -0.56537,1.12396 -0.56536,0.53151 -1.44895,0.73463 -0.10157,0.0237 -0.10157,0.12188 0,0.1625 0.14219,0.31146 0.14557,0.14557 0.38594,0.14557 0.68047,0 1.35078,-0.70078 0.12865,-0.13542 0.25052,-0.13542 0.20313,0 0.20313,0.22683 z m -2.27162,-0.59922 q 0.5349,-0.10834 0.94115,-0.45703 0.40963,-0.3487 0.40963,-0.63308 0,-0.11172 -0.0643,-0.1862 -0.0609,-0.0779 -0.15911,-0.0779 -0.29454,0 -0.65339,0.43333 -0.35885,0.43334 -0.47396,0.92084 z m 0.43333,-2.79974 -0.15911,-0.10495 q -0.14219,-0.088 -0.53828,-0.39609 -0.39609,-0.30808 -0.39609,-0.50443 0,-0.0914 0.14218,-0.20651 0.14219,-0.11511 0.27761,-0.11511 0.0677,0 0.17604,0.0779 0.10833,0.0779 0.45364,0.38932 l 0.74141,0.65677 q 0.23359,0.20651 0.23359,0.36901 0,0.31485 -0.34192,0.31485 -0.10834,0 -0.58907,-0.48073 z"
       style="font-size:64.99999762%;baseline-shift:super"
       id="path938"
       inkscape:connector-curvature="0" />
    <path
       d="m 237.19925,156.85731 q -0.0406,0.3487 -0.38933,0.3487 -0.44349,0 -0.44349,-0.63985 0,-1.03593 0.11172,-1.77057 0.088,-0.57213 0.088,-1.12396 0,-0.13203 0.0846,-0.22005 0.0846,-0.0914 0.23698,-0.0914 0.50781,0 0.50781,0.61615 0,0.19974 -0.17943,1.01901 -0.10833,0.4875 -0.10833,0.70755 0.96823,-2.12604 1.74687,-2.12604 0.31485,0 0.50443,0.25052 0.19297,0.25052 0.19974,1.11042 0.003,0.78541 0.0813,0.78541 0.0609,0 0.42318,-0.76171 0.40286,-0.84297 0.68724,-1.11381 0.28776,-0.27083 0.6026,-0.27083 0.37578,0 0.54505,0.325 0.16927,0.32162 0.23698,1.0901 0.0508,0.60938 0.13542,0.92084 0.088,0.31146 0.29792,0.41302 0.16927,0.0813 0.16927,0.24375 0,0.14557 -0.19297,0.29453 -0.19297,0.14557 -0.39271,0.14557 -0.34531,0 -0.54167,-0.33854 -0.19297,-0.34193 -0.26067,-1.36771 -0.0372,-0.49427 -0.0813,-0.65338 -0.0406,-0.1625 -0.12526,-0.1625 -0.0745,0 -0.21667,0.24375 -0.14219,0.24036 -0.49089,0.96146 -0.30807,0.65 -0.53151,0.90729 -0.22005,0.25729 -0.47396,0.25729 -0.19635,0 -0.39609,-0.16927 -0.19635,-0.16927 -0.21328,-1.22891 -0.0169,-0.94453 -0.12188,-0.94453 -0.14218,0 -0.68385,0.83958 -0.54167,0.83959 -0.81588,1.50313 z"
       style="font-size:64.99999762%;baseline-shift:super"
       id="path940"
       inkscape:connector-curvature="0" />
    <path
       d="m 246.26878,155.89247 q 0,0.35208 -0.59245,0.84296 -0.59245,0.4875 -1.33724,0.4875 -0.57214,0 -0.90052,-0.35885 -0.32839,-0.36224 -0.32839,-1.00547 0,-0.94792 0.67032,-1.77734 0.67031,-0.82943 1.43203,-0.82943 0.37916,0 0.60937,0.24037 0.23021,0.24036 0.23021,0.57213 0,0.58906 -0.56536,1.12396 -0.56537,0.53151 -1.44896,0.73463 -0.10156,0.0237 -0.10156,0.12188 0,0.1625 0.14218,0.31146 0.14558,0.14557 0.38594,0.14557 0.68047,0 1.35078,-0.70078 0.12865,-0.13542 0.25052,-0.13542 0.20313,0 0.20313,0.22683 z m -2.27162,-0.59922 q 0.5349,-0.10834 0.94115,-0.45703 0.40963,-0.3487 0.40963,-0.63308 0,-0.11172 -0.0643,-0.1862 -0.0609,-0.0779 -0.15911,-0.0779 -0.29453,0 -0.65339,0.43333 -0.35885,0.43334 -0.47396,0.92084 z"
       style="font-size:64.99999762%;baseline-shift:super"
       id="path942"
       inkscape:connector-curvature="0" />
    <path
       d="m 226.45419,171.07371 0.0885,-0.16666 q 0.63021,-1.26563 1.35417,-2.05209 0.72917,-0.79166 1.42188,-0.79166 0.53125,0 0.86458,0.29166 0.33854,0.29167 0.33854,0.69271 0,0.25 -0.11458,0.43229 -0.11459,0.17709 -0.31771,0.17709 -0.32292,0 -0.58854,-0.26563 -0.1875,-0.17187 -0.29688,-0.17187 -0.39062,0 -1.30729,1.21354 -0.91667,1.21354 -1.10417,2.72917 -0.0573,0.4375 -0.2552,0.60937 -0.19792,0.17708 -0.53646,0.17708 -0.35938,0 -0.51042,-0.40625 -0.15104,-0.41145 -0.15104,-1.33854 0,-0.38021 0.0208,-1.02604 0.0208,-0.60937 0.11979,-1.48958 0.026,-0.22917 0.0365,-0.35938 0.0469,-0.51041 0.10417,-0.69791 0.0625,-0.19271 0.28125,-0.35938 0.21875,-0.16667 0.48437,-0.16667 0.28125,0 0.42709,0.16146 0.14583,0.16146 0.14583,0.35417 0,0.24479 -0.23437,1.01562 -0.0833,0.26563 -0.14063,0.63542 z"
       style="font-style:normal;font-variant:normal;font-weight:bold;font-stretch:normal;font-size:10.66666698px;line-height:0px;font-family:'Segoe Print';-inkscape-font-specification:'Segoe Print Bold';text-align:start;text-anchor:start"
       id="path944"
       inkscape:connector-curvature="0" />
    <path
       d="m 235.22503,171.86538 q 0,0.54167 -0.91146,1.29688 -0.91146,0.75 -2.05729,0.75 -0.88021,0 -1.38542,-0.55209 -0.50521,-0.55729 -0.50521,-1.54687 0,-1.45834 1.03125,-2.73438 1.03125,-1.27604 2.20313,-1.27604 0.58333,0 0.9375,0.36979 0.35416,0.36979 0.35416,0.88021 0,0.90625 -0.86979,1.72917 -0.86979,0.81771 -2.22916,1.13021 -0.15625,0.0365 -0.15625,0.1875 0,0.25 0.21875,0.47916 0.22395,0.22396 0.59375,0.22396 1.04687,0 2.07812,-1.07812 0.19792,-0.20834 0.38542,-0.20834 0.3125,0 0.3125,0.34896 z m -3.49479,-0.92187 q 0.82291,-0.16667 1.44791,-0.70313 0.63021,-0.53646 0.63021,-0.97396 0,-0.17187 -0.099,-0.28646 -0.0938,-0.11979 -0.24479,-0.11979 -0.45312,0 -1.00521,0.66667 -0.55208,0.66667 -0.72916,1.41667 z m 1.96354,-4.39584 h 0.005 q -0.1198,0.11979 -0.85417,0.625 -0.27083,0.1875 -0.32292,0.22917 -0.0417,0.0417 -0.14062,0.0417 -0.20313,0 -0.32292,-0.125 -0.11979,-0.13021 -0.11979,-0.31771 0,-0.30729 0.74479,-0.875 h -0.005 q 0.20313,-0.15625 0.36459,-0.28646 0.91145,-0.73438 1.15104,-0.89063 0.24479,-0.15625 0.35937,-0.15625 0.13542,0 0.30209,0.25521 0.17187,0.25521 0.17187,0.38542 0,0.11458 -0.14583,0.29167 -0.14584,0.17187 -0.35938,0.27604 -0.23958,0.10416 -0.82812,0.54687 z"
       style="font-style:normal;font-variant:normal;font-weight:bold;font-stretch:normal;font-size:10.66666698px;line-height:0px;font-family:'Segoe Print';-inkscape-font-specification:'Segoe Print Bold';text-align:start;text-anchor:start"
       id="path946"
       inkscape:connector-curvature="0" />
    <path
       d="m 237.04794,173.60496 q 0.005,-0.34375 -0.41146,-1.47916 -0.83854,-2.24479 -0.83854,-3.19792 0,-0.85417 0.67188,-0.85417 0.65625,0 0.65625,0.78125 0,0.5 0.0208,0.71355 0.026,0.20833 0.16146,0.76562 0.14062,0.55208 0.27604,0.92188 0.0781,0.22395 0.1875,0.58333 0.0625,0.22396 0.10938,0.3125 0.0312,-0.0469 0.21875,-0.40625 0.10937,-0.21875 0.73958,-1.23958 0.63021,-1.02605 1.10417,-1.63542 0.47916,-0.60938 0.71354,-0.74479 0.23437,-0.13542 0.49479,-0.13542 0.27083,0 0.44271,0.17708 0.17708,0.17709 0.17708,0.4323 0,0.30208 -0.4375,0.59375 -0.42708,0.29166 -1.16667,1.33333 -0.73437,1.04167 -1.58333,2.61979 -0.47917,0.90104 -0.85937,0.90104 -0.32813,0 -0.67709,-0.44271 z"
       style="font-style:normal;font-variant:normal;font-weight:bold;font-stretch:normal;font-size:10.66666698px;line-height:0px;font-family:'Segoe Print';-inkscape-font-specification:'Segoe Print Bold';text-align:start;text-anchor:start"
       id="path948"
       inkscape:connector-curvature="0" />
    <path
       d="m 244.78753,165.91746 q 0,0.3698 -0.33334,0.65105 -0.33333,0.27604 -0.57812,0.27604 -0.3125,0 -0.55729,-0.26042 -0.23959,-0.26042 -0.23959,-0.52083 0,-0.375 0.23959,-0.60417 0.23958,-0.23437 0.6875,-0.23437 0.34895,0 0.5625,0.20833 0.21875,0.20312 0.21875,0.48437 z m -2.51563,4.28125 v 0.005 q 0.16667,-0.94791 0.16667,-1.08333 0,-0.38542 0.16666,-0.64583 0.17188,-0.26042 0.47396,-0.26042 0.35417,0 0.55209,0.16667 0.19791,0.16666 0.19791,0.375 0,0.20833 -0.19271,0.85937 l -0.0312,0.11458 q -0.28645,1.00521 -0.34375,1.64063 -0.0573,0.63542 -0.0573,1.02604 0,0.31771 0.10938,0.84896 0.0156,0.0938 0.0156,0.15625 0,0.11979 -0.22916,0.32292 -0.22396,0.20312 -0.48438,0.20312 -0.6875,0 -0.6875,-1.04167 0,-0.88541 0.25,-2.15625 0.0521,-0.28125 0.0938,-0.53125 z"
       style="font-style:normal;font-variant:normal;font-weight:bold;font-stretch:normal;font-size:10.66666698px;line-height:0px;font-family:'Segoe Print';-inkscape-font-specification:'Segoe Print Bold';text-align:start;text-anchor:start"
       id="path950"
       inkscape:connector-curvature="0" />
    <path
       d="m 247.41773,172.33413 q -0.0208,-0.28125 -0.89583,-0.6875 -1.07292,-0.51562 -1.36979,-0.88542 -0.29688,-0.375 -0.29688,-0.8125 0,-0.92187 1.03125,-1.60937 1.03646,-0.69271 1.9323,-0.69271 0.8802,0 0.8802,0.76563 0,0.20312 -0.20312,0.36458 -0.19792,0.16146 -0.33854,0.16146 -0.0573,0 -0.20313,-0.0729 -0.14583,-0.0729 -0.22396,-0.0729 -0.46354,0 -1.02083,0.3125 -0.55729,0.3125 -0.55729,0.72917 0,0.20313 0.19792,0.39583 0.19791,0.1875 0.80729,0.47396 0.90104,0.42709 1.1875,0.77084 0.28646,0.34375 0.28646,0.76041 0,0.76042 -1.03125,1.27084 -1.02605,0.5052 -2.3073,0.5052 -0.9427,0 -0.9427,-0.68229 0,-0.25 0.19791,-0.42708 0.19792,-0.17708 0.44271,-0.17708 0.099,0 0.30729,0.0729 0.20834,0.0781 0.38542,0.0781 0.48958,0 1.02604,-0.15625 0.53646,-0.15625 0.70833,-0.38542 z"
       style="font-style:normal;font-variant:normal;font-weight:bold;font-stretch:normal;font-size:10.66666698px;line-height:0px;font-family:'Segoe Print';-inkscape-font-specification:'Segoe Print Bold';text-align:start;text-anchor:start"
       id="path952"
       inkscape:connector-curvature="0" />
    <path
       d="m 252.35003,165.91746 q 0,0.3698 -0.33334,0.65105 -0.33333,0.27604 -0.57812,0.27604 -0.3125,0 -0.55729,-0.26042 -0.23959,-0.26042 -0.23959,-0.52083 0,-0.375 0.23959,-0.60417 0.23958,-0.23437 0.6875,-0.23437 0.34895,0 0.5625,0.20833 0.21875,0.20312 0.21875,0.48437 z m -2.51563,4.28125 v 0.005 q 0.16667,-0.94791 0.16667,-1.08333 0,-0.38542 0.16666,-0.64583 0.17188,-0.26042 0.47396,-0.26042 0.35417,0 0.55209,0.16667 0.19791,0.16666 0.19791,0.375 0,0.20833 -0.19271,0.85937 l -0.0312,0.11458 q -0.28645,1.00521 -0.34375,1.64063 -0.0573,0.63542 -0.0573,1.02604 0,0.31771 0.10938,0.84896 0.0156,0.0938 0.0156,0.15625 0,0.11979 -0.22916,0.32292 -0.22396,0.20312 -0.48438,0.20312 -0.6875,0 -0.6875,-1.04167 0,-0.88541 0.25,-2.15625 0.0521,-0.28125 0.0938,-0.53125 z"
       style="font-style:normal;font-variant:normal;font-weight:bold;font-stretch:normal;font-size:10.66666698px;line-height:0px;font-family:'Segoe Print';-inkscape-font-specification:'Segoe Print Bold';text-align:start;text-anchor:start"
       id="path954"
       inkscape:connector-curvature="0" />
    <path
       d="m 257.44898,171.01642 q -0.34895,1.21875 -1.32812,2.05729 -0.97396,0.83334 -1.94792,0.83334 -0.77083,0 -1.27083,-0.5625 -0.5,-0.56771 -0.5,-1.39063 0,-1.34375 0.91667,-2.64583 0.91666,-1.30208 2.22395,-1.30208 0.89063,0 1.44271,0.66145 0.55209,0.65625 0.55209,1.56771 0,0.39584 -0.0885,0.77604 z m -2.70833,-1.64583 q -0.36458,0.32292 -0.71354,1.03125 -0.34896,0.70833 -0.34896,1.42187 0,0.4323 0.15625,0.71355 0.16146,0.28125 0.42188,0.28125 0.64583,0 1.34375,-0.76563 0.69791,-0.76562 0.69791,-1.71875 0,-0.53646 -0.22916,-0.88021 -0.22396,-0.34896 -0.63021,-0.34896 -0.38542,0 -0.69271,0.26563 z"
       style="font-style:normal;font-variant:normal;font-weight:bold;font-stretch:normal;font-size:10.66666698px;line-height:0px;font-family:'Segoe Print';-inkscape-font-specification:'Segoe Print Bold';text-align:start;text-anchor:start"
       id="path956"
       inkscape:connector-curvature="0" />
    <path
       d="m 262.92295,172.89663 q -0.25,-0.46875 -0.36459,-1.75 -0.11458,-1.33333 -0.51041,-1.33333 -0.375,0 -1.29688,1.39062 -0.92187,1.38542 -1.13542,2.04688 -0.0469,0.19791 -0.17708,0.32812 -0.125,0.13021 -0.25,0.13021 -0.79167,0 -0.79167,-0.72396 0,-0.24479 0.15625,-1.11458 0.20313,-1.125 0.20313,-2.75 0,-0.24479 0.21354,-0.52083 0.21354,-0.28125 0.45313,-0.28125 0.30208,0 0.46354,0.15104 0.16146,0.15104 0.16146,0.80208 0,0.49479 -0.29688,1.91667 1.13021,-2.64584 2.52083,-2.64584 1.20834,0 1.41667,1.90105 0.20833,1.9375 0.47917,1.9375 0.11979,0 0.27604,-0.0521 0.1875,-0.0625 0.29687,-0.0625 0.25,0 0.25,0.29167 0,0.26562 -0.34375,0.56771 -0.34375,0.29687 -0.86458,0.29687 -0.60417,0 -0.86458,-0.52604 z"
       style="font-style:normal;font-variant:normal;font-weight:bold;font-stretch:normal;font-size:10.66666698px;line-height:0px;font-family:'Segoe Print';-inkscape-font-specification:'Segoe Print Bold';text-align:start;text-anchor:start"
       id="path958"
       inkscape:connector-curvature="0" />
  </g>
</svg>
